{"glyphs":{":":{"x_min":0,"x_max":288,"ha":288,"o":"m 144 241 q 128 241 115 253 q 103 266 103 281 q 103 297 115 310 q 127 322 144 322 q 161 322 172 310 q 184 298 184 281 q 184 265 172 253 q 161 241 144 241 z m 144 -14 q 128 -14 115 -2 q 103 10 103 26 q 103 42 115 55 q 127 67 144 67 q 161 67 172 55 q 184 43 184 26 q 184 9 172 -2 q 161 -14 144 -14 z"},"$":{"x_min":0,"x_max":421,"ha":421,"o":"m 244 639 q 242 639 237 640 q 231 640 229 640 q 171 640 133 602 q 94 564 94 509 q 94 461 120 428 q 146 396 201 375 z m 171 14 q 178 13 184 12 q 190 11 197 11 q 250 11 284 51 q 317 90 317 154 q 317 206 294 237 q 271 269 216 291 z m 131 -68 l 140 -9 q 103 0 74 22 q 46 44 27 80 l 60 100 q 74 71 95 52 q 116 32 145 21 l 192 303 l 173 309 q 101 335 65 377 q 30 418 30 477 q 30 560 84 613 q 139 667 222 667 q 227 667 232 667 q 238 666 249 665 l 256 709 l 283 709 l 275 658 q 301 651 323 632 q 345 612 367 575 l 338 558 q 323 591 307 609 q 290 627 270 633 l 228 365 l 254 353 q 334 317 362 282 q 389 246 389 187 q 389 96 335 41 q 280 -15 192 -15 q 182 -15 177 -15 q 171 -15 167 -14 l 158 -68 z"},"?":{"x_min":0,"x_max":407,"ha":407,"o":"m 159 -14 q 143 -14 131 -2 q 119 10 119 26 q 119 42 131 55 q 143 67 159 67 q 176 67 188 55 q 200 43 200 26 q 200 10 188 -2 q 176 -14 159 -14 z m 160 101 l 129 264 q 127 274 126 283 q 125 292 125 299 q 125 330 166 351 l 166 351 l 209 372 q 258 396 278 426 q 299 457 299 504 q 299 569 266 607 q 233 644 175 644 q 125 644 98 615 q 72 586 70 528 l 39 528 q 40 597 76 632 q 113 667 183 667 q 263 667 311 619 q 359 572 359 492 q 359 438 331 395 q 303 352 251 327 l 218 311 q 187 296 182 258 q 181 255 181 254 z"},"<":{"x_min":0,"x_max":833,"ha":833,"o":"m 704 505 l 194 298 l 704 91 l 704 48 l 129 283 l 129 313 l 704 549 z"},"'":{"x_min":0,"x_max":139,"ha":139,"o":"m 91 700 l 91 430 l 49 430 l 49 700 z"},"=":{"x_min":0,"x_max":833,"ha":833,"o":"m 709 229 l 709 189 l 124 189 l 124 229 z m 709 406 l 709 367 l 124 367 l 124 406 z"},"a":{"x_min":0,"x_max":383,"ha":383,"o":"m 53 0 l 25 0 l 144 400 q 150 420 162 430 q 173 441 190 441 q 207 441 218 429 q 229 417 240 389 l 380 0 l 316 0 l 273 119 l 90 119 z m 99 147 l 264 147 l 192 348 q 186 365 182 371 q 178 376 173 376 q 163 376 156 351 q 155 349 155 348 z"},"L":{"x_min":0,"x_max":402,"ha":402,"o":"m 162 35 l 411 35 l 411 0 l 90 0 l 90 653 l 162 653 z"},"3":{"x_min":0,"x_max":366,"ha":366,"o":"m 106 0 l 26 0 l 228 260 q 250 288 258 305 q 267 322 267 336 q 267 358 249 370 q 231 382 197 382 l 56 382 l 237 618 l 16 618 l 16 653 l 342 653 l 150 406 l 229 406 q 276 406 301 386 q 326 367 326 330 q 326 310 316 287 q 306 264 284 235 z"},";":{"x_min":0,"x_max":288,"ha":288,"o":"m 146 241 q 130 241 118 253 q 106 265 106 281 q 106 298 118 310 q 130 322 146 322 q 163 322 175 310 q 187 298 187 281 q 187 265 175 253 q 163 241 146 241 z m 79 -155 l 104 0 q 110 37 120 52 q 130 66 149 66 q 163 66 171 56 q 180 46 180 30 q 180 20 176 7 q 171 -6 164 -18 z"},"J":{"x_min":0,"x_max":259,"ha":259,"o":"m 0 0 l 0 31 l 6 31 q 59 31 80 60 q 102 88 102 159 l 102 653 l 174 653 l 174 173 q 174 83 135 41 q 97 0 13 0 z"},"V":{"x_min":0,"x_max":547,"ha":547,"o":"m 275 -16 l -1 653 l 73 653 l 290 119 l 507 653 l 548 653 z"},"\"":{"x_min":0,"x_max":269,"ha":269,"o":"m 220 700 l 220 430 l 178 430 l 178 700 z m 91 700 l 91 430 l 49 430 l 49 700 z"},"7":{"x_min":0,"x_max":354,"ha":354,"o":"m 104 0 l 38 0 l 300 618 l -1 618 l -1 653 l 378 653 z"},"S":{"x_min":0,"x_max":456,"ha":456,"o":"m 50 80 l 83 100 q 104 58 140 35 q 176 11 218 11 q 273 11 306 50 q 340 89 340 154 q 340 205 318 234 q 297 264 237 291 l 196 309 q 114 346 83 383 q 53 420 53 477 q 53 557 107 612 q 162 667 241 667 q 289 667 325 644 q 362 622 390 575 l 361 558 q 343 596 313 618 q 283 639 249 639 q 193 639 156 602 q 118 564 118 509 q 118 460 143 430 q 167 399 234 371 l 276 353 q 353 320 382 283 q 411 247 411 187 q 411 97 356 41 q 302 -16 216 -16 q 160 -16 118 8 q 77 32 50 80 z"},"}":{"x_min":0,"x_max":500,"ha":500,"o":"m 266 537 l 266 420 q 266 343 294 311 q 323 280 392 280 q 396 280 403 280 q 410 281 414 281 l 414 237 q 410 237 403 237 q 396 238 392 238 q 323 238 294 207 q 266 175 266 98 l 266 -19 q 266 -129 233 -166 q 199 -202 107 -202 l 86 -202 l 86 -159 l 105 -159 q 170 -159 193 -135 q 216 -110 216 -31 l 216 87 q 216 172 237 208 q 258 243 312 259 q 258 274 237 310 q 216 346 216 431 l 216 549 q 216 628 193 653 q 170 678 104 678 l 86 678 l 86 721 l 107 721 q 199 721 233 685 q 266 648 266 537 z"},"Z":{"x_min":0,"x_max":551,"ha":551,"o":"m 115 34 l 526 34 l 526 0 l 10 0 l 429 618 l 47 618 l 47 653 l 534 653 z"},"x":{"x_min":0,"x_max":394,"ha":394,"o":"m 190 185 l 44 0 l 7 0 l 172 210 l 18 428 l 88 428 l 208 258 l 342 428 l 376 428 l 225 233 l 386 0 l 316 0 z"},")":{"x_min":0,"x_max":370,"ha":370,"o":"m 126 -222 l 72 -190 q 120 -98 144 4 q 168 107 168 222 q 168 337 144 440 q 120 543 72 635 l 126 667 q 178 560 204 449 q 230 339 230 222 q 230 105 204 -5 q 179 -115 126 -222 z"},"&":{"x_min":0,"x_max":580,"ha":580,"o":"m 450 87 l 236 392 q 168 352 139 309 q 111 267 111 206 q 111 124 162 71 q 213 18 293 18 q 340 18 380 36 q 420 53 450 87 z m 591 0 l 513 0 l 472 59 q 435 21 388 2 q 341 -16 283 -16 q 173 -16 105 46 q 37 108 37 207 q 37 278 76 333 q 115 388 203 438 l 134 538 q 144 601 177 634 q 210 667 263 667 q 312 667 345 637 q 377 606 377 560 q 377 528 355 494 q 333 461 289 428 l 485 147 q 493 168 496 189 q 500 210 500 230 q 500 252 495 277 q 489 302 478 331 l 506 331 q 519 312 525 288 q 531 264 531 235 q 531 204 524 176 q 518 148 505 122 z m 258 472 l 281 488 q 306 506 319 528 q 332 549 332 572 q 332 603 312 623 q 291 643 259 643 q 232 643 213 628 q 193 613 180 584 z"},"_":{"x_min":0,"x_max":500,"ha":500,"o":"m 500 -197 l 500 -236 l 0 -236 l 0 -197 z"},"v":{"x_min":0,"x_max":395,"ha":395,"o":"m 382 427 l 225 8 q 220 -4 213 -9 q 207 -15 196 -15 q 188 -15 180 -9 q 172 -2 168 8 l 12 427 l 75 427 l 203 75 q 205 71 207 69 q 209 67 211 67 q 213 67 216 69 q 219 72 220 75 l 354 427 z"},"O":{"x_min":0,"x_max":706,"ha":706,"o":"m 589 325 q 589 465 523 552 q 458 639 354 639 q 250 639 185 552 q 119 465 119 325 q 119 185 185 98 q 250 12 354 12 q 458 12 523 98 q 589 185 589 325 z m 353 -16 q 290 -16 234 8 q 178 33 133 80 q 88 128 64 191 q 41 253 41 325 q 41 397 64 460 q 88 522 134 571 q 177 618 234 642 q 291 667 353 667 q 416 667 472 642 q 528 618 572 571 q 618 522 641 460 q 665 397 665 325 q 665 253 642 191 q 618 128 573 80 q 528 33 472 8 q 416 -16 353 -16 z"},"(":{"x_min":0,"x_max":370,"ha":370,"o":"m 244 -222 q 191 -115 166 -5 q 140 105 140 222 q 140 339 166 449 q 191 560 244 667 l 299 635 q 251 543 227 440 q 203 337 203 222 q 203 107 227 4 q 251 -98 299 -190 z"},"C":{"x_min":0,"x_max":619,"ha":619,"o":"m 599 126 q 564 56 505 20 q 446 -16 366 -16 q 298 -16 239 8 q 180 32 135 79 q 88 127 64 191 q 41 254 41 332 q 41 400 63 461 q 85 521 128 568 q 172 616 231 642 q 290 667 358 667 q 438 667 499 632 q 559 597 598 528 l 562 509 q 533 574 484 606 q 436 639 369 639 q 256 639 188 557 q 119 475 119 338 q 119 193 189 102 q 259 11 369 11 q 436 11 486 47 q 536 83 566 153 z"},"W":{"x_min":0,"x_max":771,"ha":771,"o":"m 384 325 l 256 -16 l 0 653 l 75 653 l 276 129 l 366 374 l 262 653 l 336 653 l 528 128 l 727 653 l 767 653 l 510 -16 z"},"A":{"x_min":0,"x_max":524,"ha":524,"o":"m 136 232 l 372 232 l 256 532 z m 124 202 l 44 0 l 0 0 l 267 667 l 536 0 l 464 0 l 382 202 z"},"f":{"x_min":0,"x_max":242,"ha":242,"o":"m 72 0 l 72 558 q 72 645 97 677 q 122 710 182 710 q 196 710 208 707 q 221 705 233 699 l 233 674 q 220 682 210 685 q 200 688 191 688 q 162 688 146 668 q 130 648 130 611 l 130 428 l 210 428 l 210 400 l 130 400 l 130 0 z"},"Q":{"x_min":0,"x_max":706,"ha":706,"o":"m 321 13 l 321 88 l 385 88 l 385 13 q 480 31 535 114 q 589 197 589 325 q 589 465 523 552 q 458 639 354 639 q 250 639 185 552 q 119 465 119 325 q 119 199 174 115 q 228 31 321 13 z m 385 -15 l 385 -74 l 321 -74 l 321 -15 q 195 2 118 96 q 41 190 41 325 q 41 397 64 460 q 88 522 134 571 q 177 618 234 642 q 291 667 353 667 q 416 667 472 642 q 528 618 572 571 q 618 522 641 460 q 665 397 665 325 q 665 190 588 96 q 511 2 385 -15 z"},"w":{"x_min":0,"x_max":581,"ha":581,"o":"m 570 428 l 417 9 q 412 -3 406 -9 q 399 -14 390 -14 q 381 -14 374 -8 q 366 -1 362 10 l 291 208 l 217 9 q 212 -2 206 -8 q 199 -14 190 -14 q 182 -14 174 -7 q 167 0 163 10 l 11 428 l 72 428 l 205 52 l 277 247 l 210 428 l 272 428 l 404 59 l 543 428 z"},"-":{"x_min":0,"x_max":312,"ha":312,"o":"m 257 246 l 49 134 l 49 191 l 257 302 z"},"E":{"x_min":0,"x_max":512,"ha":512,"o":"m 162 35 l 469 35 l 469 0 l 90 0 l 90 653 l 459 653 l 459 618 l 162 618 l 162 350 l 441 350 l 441 317 l 162 317 z"},"s":{"x_min":0,"x_max":344,"ha":344,"o":"m 56 0 l 56 28 l 158 28 q 205 28 229 48 q 252 68 252 109 q 252 141 237 159 q 223 177 189 187 l 141 202 q 94 216 69 244 q 44 271 44 310 q 44 364 80 396 q 117 428 178 428 l 273 428 l 273 400 l 174 400 q 139 400 120 382 q 100 364 100 331 q 100 301 115 283 q 130 265 165 254 l 205 241 q 261 223 285 195 q 310 167 310 122 q 310 63 271 31 q 231 0 158 0 z"},">":{"x_min":0,"x_max":833,"ha":833,"o":"m 704 313 l 704 283 l 129 48 l 129 91 l 639 298 l 129 505 l 129 549 z"},"l":{"x_min":0,"x_max":223,"ha":223,"o":"m 72 699 l 130 699 l 130 62 q 130 42 138 35 q 147 28 179 28 l 220 28 l 220 0 l 151 0 q 102 0 87 14 q 72 28 72 77 z"},"8":{"x_min":0,"x_max":414,"ha":414,"o":"m 206 403 q 238 403 259 437 q 280 472 280 526 q 280 581 259 614 q 239 647 205 647 q 171 647 152 616 q 133 586 133 532 q 133 472 153 438 q 172 403 206 403 z m 210 12 q 262 12 291 59 q 320 106 320 191 q 320 275 291 323 q 262 371 211 371 q 159 371 128 324 q 97 276 97 195 q 97 107 127 60 q 156 12 210 12 z m 256 388 q 322 366 357 319 q 392 271 392 202 q 392 108 337 46 q 283 -17 202 -17 q 127 -17 73 41 q 19 100 19 180 q 19 249 55 304 q 92 359 155 386 q 112 411 89 445 q 67 479 67 519 q 67 580 108 623 q 148 667 205 667 q 264 667 302 628 q 341 590 341 530 q 341 487 320 453 q 299 418 256 388 z"},"\\":{"x_min":0,"x_max":248,"ha":248,"o":"m -1 667 l 31 667 l 248 -93 l 216 -93 z"},"e":{"x_min":0,"x_max":374,"ha":374,"o":"m 63 351 q 63 399 78 414 q 94 428 143 428 l 328 428 l 328 400 l 171 400 q 138 400 129 393 q 121 387 121 367 l 121 241 l 287 241 l 287 215 l 121 215 l 121 62 q 121 42 130 35 q 139 28 171 28 l 324 28 l 324 0 l 143 0 q 94 0 78 14 q 63 29 63 77 z"},"b":{"x_min":0,"x_max":472,"ha":472,"o":"m 132 28 l 192 28 q 280 28 328 75 q 376 122 376 209 q 376 298 329 349 q 281 400 198 400 l 132 400 z m 133 0 l 72 0 l 72 699 l 132 699 l 132 428 l 200 428 q 307 428 373 367 q 438 307 438 209 q 438 105 370 53 q 302 0 169 0 z"},"%":{"x_min":0,"x_max":766,"ha":766,"o":"m 677 175 q 677 259 653 297 q 629 336 578 336 q 529 336 505 297 q 480 258 480 182 q 480 100 504 60 q 528 21 578 21 q 627 21 652 60 q 677 99 677 175 z m 417 179 q 417 254 464 305 q 511 357 578 357 q 646 357 693 306 q 740 254 740 179 q 740 104 693 52 q 646 0 578 0 q 511 0 464 52 q 417 104 417 179 z m 134 -16 l 594 667 l 632 667 l 172 -16 z m 286 470 q 286 554 262 592 q 238 631 187 631 q 138 631 114 592 q 89 554 89 477 q 89 395 113 355 q 137 316 187 316 q 236 316 261 355 q 286 394 286 470 z m 26 474 q 26 549 73 601 q 120 653 187 653 q 254 653 302 601 q 349 550 349 474 q 349 398 302 347 q 254 295 187 295 q 120 295 73 347 q 26 399 26 474 z"},"m":{"x_min":0,"x_max":560,"ha":560,"o":"m 97 0 l 72 0 l 72 369 q 72 415 83 429 q 94 444 121 444 q 138 444 152 430 q 167 416 177 389 l 283 106 l 384 398 q 393 421 405 432 q 417 442 436 442 q 461 442 474 426 q 488 409 488 378 l 488 0 l 430 0 l 430 364 q 430 377 427 384 q 423 390 416 390 q 411 390 407 385 q 403 381 400 371 l 266 -12 l 128 356 q 122 373 117 378 q 113 384 107 384 q 102 384 100 380 q 97 375 97 367 z"},"#":{"x_min":0,"x_max":769,"ha":769,"o":"m 478 423 l 346 423 l 298 285 l 429 285 z m 447 710 l 362 467 l 494 467 l 580 710 l 634 710 l 549 467 l 706 467 l 691 423 l 533 423 l 484 285 l 654 285 l 639 241 l 468 241 l 383 0 l 328 0 l 414 241 l 282 241 l 195 0 l 141 0 l 226 241 l 63 241 l 78 285 l 242 285 l 291 423 l 115 423 l 129 467 l 307 467 l 393 710 z"},",":{"x_min":0,"x_max":288,"ha":288,"o":"m 87 -155 l 112 0 q 118 37 128 52 q 138 66 157 66 q 170 66 179 56 q 187 46 187 30 q 187 20 183 7 q 179 -5 171 -18 z"},"n":{"x_min":0,"x_max":455,"ha":455,"o":"m 97 0 l 72 0 l 72 383 q 72 409 83 423 q 94 438 113 438 q 133 438 150 426 q 167 413 185 385 l 358 105 l 358 428 l 383 428 l 383 3 q 383 -6 381 -10 q 378 -14 373 -14 q 369 -14 364 -9 q 358 -4 349 10 l 133 359 q 125 371 121 375 q 116 378 111 378 q 104 378 101 372 q 97 366 97 353 z"},"h":{"x_min":0,"x_max":481,"ha":481,"o":"m 130 0 l 72 0 l 72 699 l 130 699 l 130 239 l 352 239 l 352 428 l 410 428 l 410 0 l 352 0 l 352 211 l 130 211 z"},"z":{"x_min":0,"x_max":333,"ha":333,"o":"m 112 28 l 316 28 l 316 0 l 38 0 l 218 400 l 38 400 l 38 428 l 208 428 q 244 428 257 421 q 271 414 271 396 q 271 390 269 383 q 268 375 265 369 z"},"B":{"x_min":0,"x_max":572,"ha":572,"o":"m 162 618 l 162 354 l 259 354 q 310 354 334 360 q 358 367 376 381 q 396 397 407 424 q 418 450 418 480 q 418 548 374 583 q 329 618 243 618 z m 162 322 l 162 35 l 278 35 q 371 35 412 66 q 454 98 454 167 q 454 247 405 284 q 356 322 254 322 z m 300 0 l 90 0 l 90 653 l 237 653 q 354 653 421 606 q 488 559 488 477 q 488 422 456 384 q 423 346 370 339 q 450 323 492 281 q 533 238 533 171 q 533 86 475 43 q 416 0 300 0 z"},"K":{"x_min":0,"x_max":510,"ha":510,"o":"m 430 0 l 183 328 l 438 653 l 482 653 l 250 354 l 517 0 z m 162 0 l 90 0 l 90 653 l 162 653 z"},"R":{"x_min":0,"x_max":574,"ha":574,"o":"m 162 0 l 90 0 l 90 653 l 285 653 q 399 653 463 605 q 527 557 527 471 q 527 398 472 355 q 418 312 325 312 q 315 312 310 312 q 305 312 300 313 l 523 0 l 434 0 l 200 341 l 297 341 q 368 341 409 377 q 449 413 449 476 q 449 546 404 582 q 359 618 272 618 l 162 618 z"},"T":{"x_min":0,"x_max":370,"ha":370,"o":"m 149 0 l 149 618 l -13 618 l -13 653 l 383 653 l 383 618 l 221 618 l 221 0 z"},"P":{"x_min":0,"x_max":545,"ha":545,"o":"m 162 306 l 162 0 l 90 0 l 90 653 l 272 653 q 385 653 451 606 q 516 560 516 480 q 516 398 457 352 q 398 306 294 306 z m 162 618 l 162 340 l 251 340 q 347 340 392 374 q 437 408 437 480 q 437 552 390 585 q 343 618 240 618 z"},"|":{"x_min":0,"x_max":500,"ha":500,"o":"m 272 764 l 272 -236 l 228 -236 l 228 764 z"},"t":{"x_min":0,"x_max":293,"ha":293,"o":"m 117 0 l 117 400 l 2 400 l 2 428 l 291 428 l 291 400 l 175 400 l 175 0 z"},"M":{"x_min":0,"x_max":770,"ha":770,"o":"m 129 577 l 129 0 l 90 0 l 90 653 l 174 653 l 387 121 l 600 653 l 679 653 l 679 0 l 612 0 l 612 593 l 369 -16 z"},"g":{"x_min":0,"x_max":437,"ha":437,"o":"m 346 -174 l 346 14 q 317 0 291 -7 q 264 -14 237 -14 q 150 -14 95 51 q 41 115 41 219 q 41 317 96 379 q 152 441 239 441 q 283 441 320 421 q 357 401 391 359 l 367 341 q 339 379 306 399 q 272 418 234 418 q 171 418 136 372 q 102 326 102 242 q 102 133 142 71 q 182 9 250 9 q 275 9 298 19 q 320 30 346 53 l 346 194 l 404 194 l 404 -174 z"},"j":{"x_min":0,"x_max":201,"ha":201,"o":"m 65 531 q 65 545 75 556 q 86 567 100 567 q 115 567 126 556 q 136 546 136 531 q 136 516 125 506 q 115 495 100 495 q 86 495 76 506 q 65 517 65 531 z m 130 428 l 130 -3 q 130 -105 104 -142 q 78 -178 12 -178 q 1 -178 -10 -177 q -21 -175 -32 -172 l -32 -149 q -16 -152 -8 -153 q 0 -154 6 -154 q 42 -154 57 -126 q 72 -99 72 -31 l 72 428 z"},"i":{"x_min":0,"x_max":201,"ha":201,"o":"m 65 531 q 65 545 75 556 q 86 567 100 567 q 115 567 126 556 q 136 546 136 531 q 136 516 125 506 q 115 495 100 495 q 86 495 76 506 q 65 517 65 531 z m 72 428 l 130 428 l 130 0 l 72 0 z"},"y":{"x_min":0,"x_max":394,"ha":394,"o":"m 127 -174 l 98 -174 l 181 22 l 9 428 l 72 428 l 212 93 l 356 428 l 385 428 z"},"@":{"x_min":0,"x_max":1000,"ha":1000,"o":"m 636 404 l 666 467 l 705 467 l 638 197 q 633 179 631 165 q 628 151 628 144 q 628 123 643 111 q 658 99 685 99 q 708 99 734 109 q 759 118 784 136 q 833 172 863 237 q 893 302 893 375 q 893 508 796 590 q 698 671 539 671 q 457 671 387 647 q 318 624 261 577 q 186 515 148 432 q 110 350 110 249 q 110 89 218 -6 q 326 -101 507 -101 q 585 -101 665 -76 q 745 -52 811 -7 l 825 -29 q 754 -83 675 -109 q 595 -136 509 -136 q 417 -136 341 -114 q 265 -91 206 -46 q 132 10 95 85 q 59 159 59 255 q 59 334 84 405 q 108 476 156 534 q 226 620 324 664 q 423 708 544 708 q 622 708 693 687 q 763 665 814 626 q 876 578 909 515 q 941 453 941 380 q 941 297 910 229 q 879 162 822 116 q 789 90 751 76 q 712 62 673 62 q 626 62 603 80 q 579 98 579 133 q 579 139 581 149 q 581 151 581 152 q 557 109 520 85 q 483 62 439 62 q 364 62 325 103 q 286 143 286 221 q 286 333 352 410 q 417 487 511 487 q 558 487 589 466 q 621 445 636 404 z m 595 228 l 626 352 q 615 400 586 426 q 557 451 512 451 q 438 451 387 384 q 337 316 337 218 q 337 162 365 130 q 393 98 443 98 q 497 98 539 134 q 580 169 595 228 z"},".":{"x_min":0,"x_max":288,"ha":288,"o":"m 144 -14 q 128 -14 115 -2 q 103 10 103 26 q 103 42 115 55 q 127 67 144 67 q 161 67 172 55 q 184 43 184 26 q 184 9 172 -2 q 161 -14 144 -14 z"},"p":{"x_min":0,"x_max":472,"ha":472,"o":"m 132 28 l 192 28 q 280 28 328 75 q 376 122 376 209 q 376 298 329 349 q 281 400 198 400 l 132 400 z m 132 0 l 132 -174 l 72 -174 l 72 428 l 200 428 q 307 428 373 367 q 438 307 438 209 q 438 105 370 53 q 302 0 169 0 z"},"X":{"x_min":0,"x_max":551,"ha":551,"o":"m 283 283 l 75 0 l 28 0 l 261 316 l 29 653 l 110 653 l 303 374 l 506 653 l 552 653 l 327 340 l 563 0 l 482 0 z"},"*":{"x_min":0,"x_max":442,"ha":442,"o":"m 198 487 l 65 515 l 85 576 l 203 518 l 189 653 l 252 653 l 238 518 l 355 576 l 377 515 l 244 487 l 341 391 l 289 353 l 220 474 l 153 355 l 100 391 z"},"Y":{"x_min":0,"x_max":515,"ha":515,"o":"m 304 343 l 304 0 l 232 0 l 232 333 l -7 653 l 78 653 l 286 374 l 484 653 l 522 653 z"},"c":{"x_min":0,"x_max":418,"ha":418,"o":"m 391 80 q 361 31 323 9 q 284 -14 231 -14 q 145 -14 93 46 q 40 107 40 207 q 40 313 97 377 q 153 441 246 441 q 296 441 331 420 q 366 399 388 356 l 364 341 q 345 381 317 399 q 290 418 251 418 q 181 418 142 364 q 103 309 103 212 q 103 114 139 62 q 175 9 242 9 q 283 9 315 31 q 347 53 370 97 z"},"!":{"x_min":0,"x_max":301,"ha":301,"o":"m 150 -14 q 134 -14 122 -2 q 110 10 110 26 q 110 42 122 55 q 134 67 150 67 q 167 67 179 55 q 191 43 191 26 q 191 10 179 -2 q 167 -14 150 -14 z m 110 593 q 110 596 109 600 q 109 604 109 606 q 109 634 120 651 q 132 667 151 667 q 170 667 181 651 q 192 634 192 606 q 192 604 191 600 q 191 596 191 593 l 150 129 z"},"/":{"x_min":0,"x_max":248,"ha":248,"o":"m -1 -93 l 216 667 l 249 667 l 31 -93 z"},"[":{"x_min":0,"x_max":394,"ha":394,"o":"m 109 653 l 315 653 l 315 625 l 176 625 l 176 -184 l 315 -184 l 315 -212 l 109 -212 z"},"6":{"x_min":0,"x_max":433,"ha":433,"o":"m 84 169 q 84 97 117 55 q 150 12 206 12 q 264 12 301 64 q 337 116 337 201 q 337 273 305 317 q 273 360 221 360 q 164 360 124 305 q 84 251 84 169 z m 124 340 q 149 364 177 375 q 206 387 238 387 q 312 387 357 339 q 403 291 403 212 q 403 115 345 49 q 288 -16 203 -16 q 122 -16 75 37 q 29 91 29 184 q 29 215 34 246 q 40 277 50 305 l 176 653 l 237 653 z"},"r":{"x_min":0,"x_max":384,"ha":384,"o":"m 130 0 l 72 0 l 72 428 l 208 428 q 278 428 319 396 q 360 364 360 310 q 360 262 327 236 q 294 209 235 209 l 232 209 l 372 0 l 303 0 l 153 228 l 207 228 q 252 228 275 250 q 298 272 298 316 q 298 361 271 380 q 245 400 182 400 l 130 400 z"},"2":{"x_min":0,"x_max":447,"ha":447,"o":"m 114 35 l 431 35 l 431 0 l 5 0 l 277 329 q 325 387 344 426 q 363 466 363 504 q 363 564 323 602 q 282 640 217 640 q 143 640 104 600 q 65 561 65 485 l 65 471 l 30 471 l 30 482 q 30 567 80 617 q 130 667 215 667 q 309 667 366 618 q 423 568 423 489 q 423 443 401 398 q 379 353 301 259 z"},"{":{"x_min":0,"x_max":500,"ha":500,"o":"m 414 678 l 396 678 q 330 678 307 653 q 284 628 284 549 l 284 431 q 284 346 263 310 q 242 274 189 259 q 242 243 263 208 q 284 173 284 87 l 284 -31 q 284 -110 307 -135 q 330 -159 395 -159 l 414 -159 l 414 -202 l 393 -202 q 301 -202 267 -166 q 234 -129 234 -19 l 234 98 q 234 175 206 207 q 177 238 108 238 q 104 238 97 237 q 90 237 86 237 l 86 281 q 91 280 96 280 q 101 280 110 280 q 178 280 206 311 q 234 343 234 420 l 234 537 q 234 648 267 685 q 301 721 393 721 l 414 721 z"},"9":{"x_min":0,"x_max":433,"ha":433,"o":"m 360 494 q 360 558 328 598 q 296 637 244 637 q 185 637 144 579 q 103 521 103 434 q 103 370 134 330 q 165 291 215 291 q 274 291 317 350 q 360 409 360 494 z m 305 303 q 282 284 256 275 q 231 266 202 266 q 128 266 83 314 q 37 363 37 441 q 37 536 97 601 q 156 665 243 665 q 320 665 367 614 q 414 563 414 479 q 414 443 406 404 q 397 365 381 331 l 227 0 l 165 0 z"}," ":{"x_min":0,"x_max":288,"ha":288,"o":""},"I":{"x_min":0,"x_max":252,"ha":252,"o":"m 162 0 l 90 0 l 90 653 l 162 653 z"},"H":{"x_min":0,"x_max":674,"ha":674,"o":"m 162 315 l 162 1 l 90 1 l 90 653 l 162 653 l 162 350 l 512 350 l 512 653 l 583 653 l 583 0 l 512 0 l 512 315 z"},"4":{"x_min":0,"x_max":470,"ha":470,"o":"m 364 0 l 299 0 l 299 211 l 1 211 l 306 653 l 364 653 l 364 246 l 451 246 l 451 211 l 364 211 z m 299 246 l 299 593 l 61 246 z"},"~":{"x_min":0,"x_max":833,"ha":833,"o":"m 747 316 q 695 280 648 262 q 602 244 558 244 q 510 244 428 274 q 420 277 417 278 q 412 280 401 284 q 320 313 276 313 q 235 313 190 295 q 146 276 87 235 l 87 280 q 138 316 185 333 q 232 351 276 351 q 325 351 408 321 q 414 319 417 318 q 421 316 431 313 q 513 283 558 283 q 599 283 644 302 q 688 320 747 361 z"},"D":{"x_min":0,"x_max":660,"ha":660,"o":"m 162 618 l 162 35 l 255 35 q 390 35 465 112 q 540 189 540 328 q 540 467 462 543 q 384 618 240 618 z m 90 0 l 90 653 l 227 653 q 410 653 515 563 q 619 473 619 316 q 619 251 598 196 q 577 140 536 94 q 495 48 434 24 q 372 0 297 0 z"},"^":{"x_min":0,"x_max":1000,"ha":1000,"o":"m 528 712 l 792 440 l 731 440 l 500 669 l 268 440 l 207 440 l 470 712 z"},"0":{"x_min":0,"x_max":576,"ha":576,"o":"m 281 12 q 366 12 416 99 q 466 185 466 336 q 466 476 419 557 q 372 639 293 639 q 209 639 159 553 q 109 467 109 322 q 109 177 155 94 q 201 12 281 12 z m 266 -16 q 220 -16 178 5 q 136 25 106 63 q 71 106 54 162 q 37 218 37 290 q 37 458 113 563 q 189 667 310 667 q 411 667 475 583 q 539 498 539 361 q 539 192 463 88 q 387 -16 266 -16 z"},"F":{"x_min":0,"x_max":483,"ha":483,"o":"m 162 0 l 90 0 l 90 653 l 448 653 l 448 618 l 162 618 l 162 348 l 439 348 l 439 315 l 162 315 z"},"`":{"x_min":0,"x_max":500,"ha":500,"o":"m 309 495 l 270 495 l 139 666 l 204 666 z"},"k":{"x_min":0,"x_max":378,"ha":378,"o":"m 379 0 l 308 0 l 146 212 l 318 428 l 350 428 l 197 234 z m 130 0 l 72 0 l 72 699 l 130 699 z"},"u":{"x_min":0,"x_max":429,"ha":429,"o":"m 362 428 l 362 140 q 362 67 325 26 q 288 -14 221 -14 q 147 -14 107 29 q 67 72 67 152 l 67 428 l 125 428 l 125 135 q 125 81 153 49 q 181 17 228 17 q 280 17 307 52 q 334 87 334 155 l 334 428 z"},"]":{"x_min":0,"x_max":394,"ha":394,"o":"m 285 653 l 285 -212 l 79 -212 l 79 -184 l 218 -184 l 218 625 l 79 625 l 79 653 z"},"U":{"x_min":0,"x_max":605,"ha":605,"o":"m 520 653 l 520 197 q 520 96 469 40 q 417 -16 324 -16 q 259 -16 213 0 q 167 17 134 52 q 107 80 96 118 q 85 155 85 236 l 85 653 l 157 653 l 157 234 q 157 167 165 135 q 172 104 191 78 q 213 48 247 31 q 282 15 324 15 q 404 15 442 64 q 480 112 480 215 l 480 653 z"},"o":{"x_min":0,"x_max":484,"ha":484,"o":"m 242 9 q 307 9 347 65 q 387 121 387 213 q 387 306 347 362 q 307 418 242 418 q 177 418 136 362 q 96 305 96 213 q 96 121 136 65 q 176 9 242 9 z m 254 -14 q 159 -14 97 52 q 34 118 34 219 q 34 318 88 379 q 142 441 229 441 q 324 441 387 375 q 450 308 450 208 q 450 108 396 47 q 342 -14 254 -14 z"},"N":{"x_min":0,"x_max":669,"ha":669,"o":"m 132 561 l 132 0 l 93 0 l 93 653 l 153 653 l 537 151 l 537 653 l 576 653 l 576 -16 z"},"+":{"x_min":0,"x_max":833,"ha":833,"o":"m 436 596 l 436 318 l 709 318 l 709 278 l 436 278 l 436 0 l 397 0 l 397 278 l 124 278 l 124 318 l 397 318 l 397 596 z"},"G":{"x_min":0,"x_max":646,"ha":646,"o":"m 603 265 l 603 89 q 560 41 496 12 q 431 -16 366 -16 q 296 -16 237 8 q 177 33 131 80 q 85 127 63 189 q 41 252 41 332 q 41 399 63 460 q 86 521 128 568 q 172 616 231 642 q 290 667 358 667 q 441 667 501 631 q 562 595 594 526 l 562 509 q 533 574 484 606 q 436 639 369 639 q 256 639 188 556 q 119 474 119 337 q 119 191 189 101 q 259 11 372 11 q 423 11 467 32 q 510 53 537 90 l 537 265 z"},"q":{"x_min":0,"x_max":484,"ha":484,"o":"m 265 12 q 321 21 354 75 q 387 129 387 213 q 387 306 347 362 q 307 418 242 418 q 177 418 136 362 q 96 305 96 213 q 96 129 129 75 q 162 21 219 12 l 219 99 l 265 99 z m 265 -14 l 265 -121 l 219 -121 l 219 -14 q 131 8 83 69 q 34 130 34 219 q 34 318 88 379 q 142 441 229 441 q 324 441 387 375 q 450 309 450 208 q 450 112 399 51 q 348 -10 265 -14 z"},"d":{"x_min":0,"x_max":472,"ha":472,"o":"m 347 400 l 287 400 q 198 400 151 353 q 103 306 103 219 q 103 129 150 79 q 197 28 280 28 l 347 28 z m 347 428 l 347 699 l 407 699 l 407 0 l 278 0 q 171 0 106 61 q 41 121 41 219 q 41 323 108 375 q 176 428 309 428 z"},"1":{"x_min":0,"x_max":215,"ha":215,"o":"m 147 0 l 82 0 l 82 628 l 17 622 l 17 651 l 147 667 z"},"5":{"x_min":0,"x_max":366,"ha":366,"o":"m 113 0 l 34 0 l 235 260 q 256 288 265 305 q 274 322 274 336 q 274 359 257 370 q 239 382 205 382 l 47 382 l 47 653 l 342 653 l 342 617 l 112 617 l 112 406 l 236 406 q 283 406 308 386 q 333 367 333 330 q 333 310 323 287 q 313 264 291 235 z"}}}
